<svg width="1600" height="1000" viewBox="0 0 1600 1000" fill="none" xmlns="http://www.w3.org/2000/svg">
  <rect width="1600" height="1000" fill="#0B1020"/>
  <g opacity="0.2">
    <path d="M120 780L360 520L600 610L820 440L1060 560L1320 380L1480 470" stroke="#E5E7EB" stroke-width="5" stroke-linecap="round"/>
    <path d="M120 880L340 700L580 760L840 620L1090 700L1340 560L1490 640" stroke="#E5E7EB" stroke-width="4" stroke-linecap="round"/>
  </g>
  <rect x="250" y="240" width="1100" height="560" rx="24" fill="#111827" stroke="#334155" stroke-width="2"/>
  <rect x="290" y="280" width="450" height="230" rx="14" fill="#1E293B"/>
  <rect x="770" y="280" width="540" height="120" rx="14" fill="#1E293B"/>
  <rect x="770" y="430" width="540" height="120" rx="14" fill="#1E293B"/>
  <rect x="290" y="540" width="1020" height="220" rx="14" fill="#1E293B"/>
  <circle cx="390" cy="395" r="58" fill="#22C55E"/>
  <circle cx="510" cy="395" r="58" fill="#3B82F6"/>
  <text x="100" y="120" fill="#E5E7EB" font-size="52" font-family="Arial" font-weight="600">Field Campaign + Stakeholder Dashboard</text>
</svg>
